<svg width="1200" height="630" viewBox="0 0 1200 630" fill="none" xmlns="http://www.w3.org/2000/svg">
  <!-- Background -->
  <rect width="1200" height="630" fill="url(#ampGradient)" />
  
  <!-- Lightning pattern -->
  <defs>
    <linearGradient id="ampGradient" x1="0%" y1="0%" x2="100%" y2="100%">
      <stop offset="0%" style="stop-color:#f59e0b;stop-opacity:1" />
      <stop offset="30%" style="stop-color:#f97316;stop-opacity:1" />
      <stop offset="70%" style="stop-color:#ef4444;stop-opacity:1" />
      <stop offset="100%" style="stop-color:#dc2626;stop-opacity:1" />
    </linearGradient>
    
    <pattern id="lightning" width="60" height="60" patternUnits="userSpaceOnUse">
      <polygon points="20,10 30,25 25,30 35,50 25,45 20,40 15,45 25,25 20,20" fill="rgba(255,255,255,0.05)"/>
    </pattern>
  </defs>
  
  <rect width="1200" height="630" fill="url(#lightning)" opacity="0.6"/>
  
  <!-- Content -->
  <g transform="translate(60, 100)">
    <!-- Lightning bolt icon -->
    <g transform="translate(0, 0)">
      <polygon points="20,0 50,40 35,50 55,90 25,85 15,70 5,85 35,45 20,35" fill="white" opacity="0.9"/>
      <polygon points="25,5 45,35 35,40 50,75 30,72 22,62 15,72 30,42 25,37" fill="#fbbf24"/>
    </g>
    
    <!-- Title -->
    <text x="80" y="35" font-family="system-ui, -apple-system, sans-serif" font-size="56" font-weight="900" fill="white">
      AMP SUMMER 2025
    </text>
    <text x="80" y="85" font-family="system-ui, -apple-system, sans-serif" font-size="32" font-weight="600" fill="rgba(255,255,255,0.9)">
      Any Means Possible ⚡️
    </text>
    
    <!-- Streamers -->
    <text x="0" y="150" font-family="system-ui, -apple-system, sans-serif" font-size="28" font-weight="600" fill="rgba(255,255,255,0.95)">
      Watch All AMP Members Live:
    </text>
    
    <g transform="translate(0, 180)">
      <!-- Kai Cenat -->
      <rect x="0" y="0" width="120" height="60" rx="30" fill="rgba(255,255,255,0.15)" stroke="rgba(255,255,255,0.3)" stroke-width="2"/>
      <text x="60" y="35" font-family="system-ui, -apple-system, sans-serif" font-size="18" font-weight="700" fill="white" text-anchor="middle">
        Kai Cenat
      </text>
      
      <!-- Duke Dennis -->
      <rect x="140" y="0" width="140" height="60" rx="30" fill="rgba(255,255,255,0.15)" stroke="rgba(255,255,255,0.3)" stroke-width="2"/>
      <text x="210" y="35" font-family="system-ui, -apple-system, sans-serif" font-size="18" font-weight="700" fill="white" text-anchor="middle">
        Duke Dennis
      </text>
      
      <!-- Agent00 -->
      <rect x="300" y="0" width="120" height="60" rx="30" fill="rgba(255,255,255,0.15)" stroke="rgba(255,255,255,0.3)" stroke-width="2"/>
      <text x="360" y="35" font-family="system-ui, -apple-system, sans-serif" font-size="18" font-weight="700" fill="white" text-anchor="middle">
        Agent00
      </text>
      
      <!-- Fanum -->
      <rect x="440" y="0" width="100" height="60" rx="30" fill="rgba(255,255,255,0.15)" stroke="rgba(255,255,255,0.3)" stroke-width="2"/>
      <text x="490" y="35" font-family="system-ui, -apple-system, sans-serif" font-size="18" font-weight="700" fill="white" text-anchor="middle">
        Fanum
      </text>
    </g>
    
    <!-- Features -->
    <g transform="translate(0, 280)">
      <text x="0" y="0" font-family="system-ui, -apple-system, sans-serif" font-size="24" font-weight="600" fill="rgba(255,255,255,0.9)">
        🎮 Multi-stream viewing • 💬 Live chat integration • 📱 Mobile optimized
      </text>
      <text x="0" y="40" font-family="system-ui, -apple-system, sans-serif" font-size="20" font-weight="500" fill="rgba(255,255,255,0.8)">
        Watch all your favorite AMP streamers simultaneously on AMPSUMMER.com
      </text>
    </g>
    
    <!-- CTA -->
    <rect x="0" y="360" width="300" height="70" rx="35" fill="rgba(255,255,255,0.2)" stroke="rgba(255,255,255,0.4)" stroke-width="3"/>
    <text x="150" y="400" font-family="system-ui, -apple-system, sans-serif" font-size="24" font-weight="700" fill="white" text-anchor="middle">
      Watch Live Now →
    </text>
  </g>
  
  <!-- Side content -->
  <g transform="translate(700, 150)">
    <!-- LIVE indicator -->
    <rect x="0" y="0" width="100" height="40" rx="20" fill="#ef4444"/>
    <circle cx="25" cy="20" r="6" fill="white"/>
    <text x="40" y="26" font-family="system-ui, -apple-system, sans-serif" font-size="16" font-weight="700" fill="white">
      LIVE
    </text>
    
    <!-- Stats -->
    <g transform="translate(0, 80)">
      <text x="0" y="0" font-family="system-ui, -apple-system, sans-serif" font-size="20" font-weight="600" fill="rgba(255,255,255,0.9)">
        Official AMP Summer Hub
      </text>
      
      <g transform="translate(0, 40)">
        <text x="0" y="0" font-family="system-ui, -apple-system, sans-serif" font-size="36" font-weight="800" fill="#fbbf24">
          #1
        </text>
        <text x="0" y="25" font-family="system-ui, -apple-system, sans-serif" font-size="14" fill="rgba(255,255,255,0.7)">
          Multi-Stream Platform
        </text>
      </g>
      
      <g transform="translate(120, 40)">
        <text x="0" y="0" font-family="system-ui, -apple-system, sans-serif" font-size="36" font-weight="800" fill="#10b981">
          FREE
        </text>
        <text x="0" y="25" font-family="system-ui, -apple-system, sans-serif" font-size="14" fill="rgba(255,255,255,0.7)">
          Always Free
        </text>
      </g>
    </g>
  </g>
  
  <!-- Bottom -->
  <text x="60" y="580" font-family="system-ui, -apple-system, sans-serif" font-size="18" font-weight="600" fill="rgba(255,255,255,0.7)">
    AMPSUMMER.com • Any Means Possible ⚡️ • The Official AMP Multi-Stream Experience
  </text>
</svg>